<svg xmlns="http://www.w3.org/2000/svg" width="38.103" height="35.972" viewBox="0 0 38.103 35.972">
  <g id="creativity" transform="translate(-3 -4.86)">
    <path id="Path_622" data-name="Path 622" d="M60.09,42.069a.552.552,0,0,1-.48-.276l-3.99-7a.552.552,0,0,1-.072-.276V10.835A3.216,3.216,0,0,1,58.76,7.622h2.66a3.216,3.216,0,0,1,3.213,3.213V34.518a.552.552,0,0,1-.072.276l-3.991,7a.552.552,0,0,1-.48.276Zm-3.438-7.7L60.09,40.4l3.438-6.03V10.835A2.111,2.111,0,0,0,61.42,8.726H58.76a2.111,2.111,0,0,0-2.108,2.108Z" transform="translate(-23.529 -1.237)" fill="#fafafa"/>
    <path id="Path_623" data-name="Path 623" d="M56.617,54.957l-.749-.811c.044-.041,4.415-3.992,8.732,0l-.75.811C60.29,51.665,56.765,54.821,56.617,54.957Z" transform="translate(-23.673 -21.271)" fill="#fafafa"/>
    <path id="Path_624" data-name="Path 624" d="M56.547,18.838h7.981v1.1H56.547Z" transform="translate(-23.977 -6.259)" fill="#fafafa"/>
    <path id="Path_625" data-name="Path 625" d="M62.773,19.838h1.1V38.391h-1.1Z" transform="translate(-26.765 -6.707)" fill="#fafafa"/>
    <path id="Path_626" data-name="Path 626" d="M20.5,34.388H14.721a.552.552,0,0,1-.552-.552,8.6,8.6,0,0,0-2.946-6.41,9.633,9.633,0,1,1,12.719.049,8.442,8.442,0,0,0-2.89,6.362.552.552,0,0,1-.552.552Zm-5.242-1.1h4.706a9.549,9.549,0,0,1,3.253-6.641,8.527,8.527,0,1,0-11.26-.043,9.743,9.743,0,0,1,3.3,6.683Z" transform="translate(-2.228 -2.562)" fill="#fafafa"/>
    <path id="Path_627" data-name="Path 627" d="M24.978,56.033H21.392a.966.966,0,0,1-.965-.965V52.244a.552.552,0,0,1,.552-.552h4.412a.552.552,0,0,1,.552.552v2.824A.966.966,0,0,1,24.978,56.033Zm-3.447-1.1h3.307V52.8H21.531Z" transform="translate(-7.803 -20.97)" fill="#fafafa"/>
    <path id="Path_628" data-name="Path 628" d="M24.421,4.86h1.1V6.924h-1.1Z" transform="translate(-9.592)" fill="#fafafa"/>
    <path id="Path_629" data-name="Path 629" d="M0,0H1.1V2.063H0Z" transform="matrix(0.866, -0.5, 0.5, 0.866, 8.919, 6.74)" fill="#fafafa"/>
    <path id="Path_630" data-name="Path 630" d="M0,0H1.1V2.063H0Z" transform="matrix(0.5, -0.866, 0.866, 0.5, 4.74, 11.323)" fill="#fafafa"/>
    <path id="Path_631" data-name="Path 631" d="M3,25.534H5.064v1.1H3Z" transform="translate(0 -9.257)" fill="#fafafa"/>
    <path id="Path_632" data-name="Path 632" d="M44.106,25.534H46.17v1.1H44.106Z" transform="translate(-18.406 -9.257)" fill="#fafafa"/>
    <path id="Path_633" data-name="Path 633" d="M0,0H2.064V1.1H0Z" transform="matrix(0.866, -0.5, 0.5, 0.866, 23.682, 11.396)" fill="#fafafa"/>
    <path id="Path_634" data-name="Path 634" d="M0,0H2.064V1.1H0Z" transform="matrix(0.5, -0.866, 0.866, 0.5, 19.857, 7.976)" fill="#fafafa"/>
    <path id="Path_635" data-name="Path 635" d="M24.421,34.008h1.1V44.326h-1.1Z" transform="translate(-9.592 -13.052)" fill="#fafafa"/>
    <path id="Path_636" data-name="Path 636" d="M23.467,31.1a2.409,2.409,0,1,1,2.409-2.409A2.409,2.409,0,0,1,23.467,31.1Zm0-3.714a1.3,1.3,0,1,0,1.3,1.3A1.3,1.3,0,0,0,23.467,27.386Z" transform="translate(-8.086 -9.592)" fill="#fafafa"/>
    <path id="Path_637" data-name="Path 637" d="M46.064,64.874H26.986a2.764,2.764,0,0,1-2.761-2.761v-3.56h1.1v3.56a1.657,1.657,0,0,0,1.657,1.657H46.064Z" transform="translate(-9.504 -24.042)" fill="#fafafa"/>
  </g>
</svg>
