<svg id="graduation-cap" xmlns="http://www.w3.org/2000/svg" width="39.127" height="29.771" viewBox="0 0 39.127 29.771">
  <g id="Group_410" data-name="Group 410">
    <path id="Path_911" data-name="Path 911" d="M37.827,49.873l-15.6-7.619a6.388,6.388,0,0,0-4.975,0L1.3,49.873a1.922,1.922,0,0,0-1.3,1.7c0,.4.179,1.12,1.3,1.7l1.3.627v7.171A2.2,2.2,0,0,0,1.21,63.1a2.225,2.225,0,0,0,1.345,2.017L.538,71.521H6.185L4.168,65.112a2.172,2.172,0,0,0-.045-4.034V54.669L6.5,55.834v9.322a.723.723,0,0,0,.134.4,16.277,16.277,0,0,0,12.908,5.961A16.185,16.185,0,0,0,32.4,65.56a.723.723,0,0,0,.134-.4V55.879l5.289-2.6a1.922,1.922,0,0,0,1.3-1.7A2,2,0,0,0,37.827,49.873ZM31.1,64.933a14.988,14.988,0,0,1-11.563,5.2,14.988,14.988,0,0,1-11.563-5.2V56.462L17.255,60.9a6.044,6.044,0,0,0,2.465.493,5.457,5.457,0,0,0,2.51-.538L31.1,56.507Zm6.1-12.908-5.378,2.644a.515.515,0,0,0-.493.269L21.6,59.644a4.976,4.976,0,0,1-3.765,0L5.871,53.907l13.76-1.613A.7.7,0,0,0,19.5,50.9L3.541,52.787l-1.613-.762a.9.9,0,0,1-.493-.4c0-.045.09-.224.493-.4l15.956-7.664A4.63,4.63,0,0,1,19.72,43.2a4.543,4.543,0,0,1,1.882.359l15.6,7.619c.4.179.493.359.493.448A1.232,1.232,0,0,1,37.2,52.025Z" transform="translate(0 -41.75)" fill="#fafafa"/>
  </g>
</svg>
