<svg xmlns="http://www.w3.org/2000/svg" width="24" height="24" viewBox="0 0 24 24">
  <g id="Group_324" data-name="Group 324" transform="translate(-1278 -2511)">
    <rect id="Rectangle_43" data-name="Rectangle 43" width="24" height="24" transform="translate(1278 2511)" fill="none"/>
    <g id="calendar_3_" data-name="calendar (3)" transform="translate(1282 2515)">
      <path id="Path_645" data-name="Path 645" d="M14.062,1.261h-1.45V.5A.5.5,0,1,0,11.6.5v.757H4.54V.5A.5.5,0,0,0,3.531.5v.757H2.081A2.083,2.083,0,0,0,0,3.342v10.72a2.083,2.083,0,0,0,2.081,2.081H14.062a2.083,2.083,0,0,0,2.081-2.081V3.342A2.083,2.083,0,0,0,14.062,1.261ZM2.081,2.27h1.45v.5a.5.5,0,0,0,1.009,0v-.5H11.6v.5a.5.5,0,1,0,1.009,0v-.5h1.45a1.073,1.073,0,0,1,1.072,1.072v1.2H1.009v-1.2A1.073,1.073,0,0,1,2.081,2.27ZM14.062,15.134H2.081a1.073,1.073,0,0,1-1.072-1.072V5.549H15.134v8.513A1.073,1.073,0,0,1,14.062,15.134Z" fill="#616161"/>
    </g>
  </g>
</svg>
