<svg xmlns="http://www.w3.org/2000/svg" width="24" height="24" viewBox="0 0 24 24">
  <g id="Group_576" data-name="Group 576" transform="translate(-892 -2528)">
    <rect id="Rectangle_120" data-name="Rectangle 120" width="24" height="24" transform="translate(892 2528)" fill="none"/>
    <g id="class" transform="translate(894 2530)">
      <g id="Group_573" data-name="Group 573" transform="translate(2.951)">
        <g id="Group_572" data-name="Group 572">
          <path id="Path_1881" data-name="Path 1881" d="M77.361,0A2.393,2.393,0,0,0,75,2.4a2.361,2.361,0,0,0,4.722,0A2.393,2.393,0,0,0,77.361,0Zm0,3.581A1.182,1.182,0,0,1,76.181,2.4a1.181,1.181,0,1,1,2.361,0A1.182,1.182,0,0,1,77.361,3.581Z" transform="translate(-75)" fill="#9164e8"/>
        </g>
      </g>
      <g id="Group_575" data-name="Group 575">
        <g id="Group_574" data-name="Group 574">
          <path id="Path_1882" data-name="Path 1882" d="M18.378,0H10.035A1.773,1.773,0,0,0,8.264,1.771V5.8L7.745,5.28a1.759,1.759,0,0,0-1.252-.519H2.951A2.955,2.955,0,0,0,0,7.713v3.542a1.771,1.771,0,0,0,2.361,1.67v5.453A1.77,1.77,0,0,0,5.313,19.7a1.77,1.77,0,0,0,2.951-1.319V10.564a1.778,1.778,0,0,0,1.382-.086l1.987-.994h6.744a1.773,1.773,0,0,0,1.771-1.771V1.771A1.773,1.773,0,0,0,18.378,0Zm-6.9,8.241-2.36,1.18a.59.59,0,0,1-.682-.11l-.346-.346a.591.591,0,0,0-1.008.416v9a.59.59,0,1,1-1.181,0V12.435a.59.59,0,0,0-1.181,0v5.942a.59.59,0,1,1-1.181,0V7.713a.59.59,0,0,0-1.181,0v3.542a.59.59,0,1,1-1.181,0c0-.445,0-3.178,0-3.542A1.773,1.773,0,0,1,2.951,5.942H6.493a.586.586,0,0,1,.417.173L8.67,7.875a.59.59,0,0,0,.681.111l1.6-.8a.59.59,0,0,1,.528,1.056Zm7.488-.528a.591.591,0,0,1-.59.59H12.885l.011-.03a1.764,1.764,0,0,0,.078-.779L16.2,5.88a.59.59,0,0,0-.528-1.056L12.446,6.438a1.769,1.769,0,0,0-2.022-.309l-.979.489V1.771a.591.591,0,0,1,.59-.59h8.343a.591.591,0,0,1,.59.59Z" fill="#9164e8"/>
        </g>
      </g>
    </g>
  </g>
</svg>
