<svg xmlns="http://www.w3.org/2000/svg" width="24" height="24" viewBox="0 0 24 24">
  <g id="Group_589" data-name="Group 589" transform="translate(-637 -2506)">
    <rect id="Rectangle_121" data-name="Rectangle 121" width="24" height="24" transform="translate(637 2506)" fill="none"/>
    <g id="computer" transform="translate(638.846 2507.846)">
      <path id="Path_1878" data-name="Path 1878" d="M18.524,0H1.785A1.787,1.787,0,0,0,0,1.785V14.557a1.787,1.787,0,0,0,1.785,1.785h5.66l-.268,1.342a1.79,1.79,0,0,1-1.75,1.435H3.808a.595.595,0,0,0,0,1.19H16.5a.595.595,0,0,0,0-1.19H14.882a1.79,1.79,0,0,1-1.75-1.435l-.268-1.342h5.66a1.787,1.787,0,0,0,1.785-1.785V1.785A1.787,1.787,0,0,0,18.524,0ZM11.965,17.917a2.957,2.957,0,0,0,.539,1.2H7.8a2.957,2.957,0,0,0,.539-1.2l.315-1.575H11.65Zm7.154-3.36a.6.6,0,0,1-.595.595H1.785a.6.6,0,0,1-.595-.595V1.785a.6.6,0,0,1,.595-.595H18.524a.6.6,0,0,1,.595.595Z" fill="#9164e8"/>
      <path id="Path_1879" data-name="Path 1879" d="M171.595,67.536h5.553a.6.6,0,0,0,.595-.595v-.4a3.373,3.373,0,0,0-1.721-2.939,2.182,2.182,0,1,0-3.3,0A3.373,3.373,0,0,0,171,66.545v.4A.6.6,0,0,0,171.595,67.536Zm1.785-5.355a.992.992,0,1,1,.992.992A.993.993,0,0,1,173.38,62.182Zm.992,2.182a2.185,2.185,0,0,1,2.173,1.983H172.2A2.185,2.185,0,0,1,174.372,64.363Z" transform="translate(-164.217 -57.62)" fill="#9164e8"/>
      <path id="Path_1880" data-name="Path 1880" d="M75.874,282.793H64.967v-.2a.595.595,0,1,0-1.19,0v.2H61.595a.595.595,0,1,0,0,1.19h2.182v.2a.595.595,0,0,0,1.19,0v-.2H75.874a.595.595,0,0,0,0-1.19Z" transform="translate(-58.58 -270.814)" fill="#9164e8"/>
    </g>
  </g>
</svg>
