<svg xmlns="http://www.w3.org/2000/svg" width="24" height="24" viewBox="0 0 24 24">
  <g id="Group_209" data-name="Group 209" transform="translate(-2353 -1613)">
    <rect id="Rectangle_86" data-name="Rectangle 86" width="24" height="24" transform="translate(2353 1613)" fill="none"/>
    <g id="instagram_4_" data-name="instagram (4)" transform="translate(2355 1615)">
      <g id="Group_201" data-name="Group 201">
        <g id="Group_200" data-name="Group 200">
          <path id="Path_521" data-name="Path 521" d="M14.19,0H5.81A5.816,5.816,0,0,0,0,5.81V14.19A5.816,5.816,0,0,0,5.81,20H14.19A5.816,5.816,0,0,0,20,14.19V5.81A5.816,5.816,0,0,0,14.19,0Zm4.247,14.19a4.252,4.252,0,0,1-4.247,4.247H5.81A4.252,4.252,0,0,1,1.563,14.19V5.81A4.252,4.252,0,0,1,5.81,1.563H14.19A4.252,4.252,0,0,1,18.438,5.81Z" fill="#fafafa"/>
        </g>
      </g>
      <g id="Group_203" data-name="Group 203" transform="translate(4.698 4.698)">
        <g id="Group_202" data-name="Group 202">
          <path id="Path_522" data-name="Path 522" d="M123.3,118a5.3,5.3,0,1,0,5.3,5.3A5.308,5.308,0,0,0,123.3,118Zm0,9.067a3.765,3.765,0,1,1,3.765-3.765A3.769,3.769,0,0,1,123.3,127.067Z" transform="translate(-118 -118)" fill="#fafafa"/>
        </g>
      </g>
      <g id="Group_205" data-name="Group 205" transform="translate(14.84 3.766)">
        <g id="Group_204" data-name="Group 204" transform="translate(0 0)">
          <circle id="Ellipse_4" data-name="Ellipse 4" cx="0.697" cy="0.697" r="0.697" fill="#fafafa"/>
        </g>
      </g>
    </g>
  </g>
</svg>
