<svg xmlns="http://www.w3.org/2000/svg" width="24" height="24" viewBox="0 0 24 24">
  <g id="Group_148" data-name="Group 148" transform="translate(272 457)">
    <g id="linkedin_6_" data-name="linkedin (6)" transform="translate(-270 -455)">
      <path id="Path_509" data-name="Path 509" d="M21.214,21.055h0V13.83c0-3.534-.761-6.256-4.892-6.256A4.289,4.289,0,0,0,12.464,9.7h-.057V7.9H8.489v13.15h4.079V14.543c0-1.714.325-3.372,2.448-3.372,2.092,0,2.123,1.957,2.123,3.482v6.4Z" transform="translate(-1.219 -1.055)" fill="#fafafa"/>
      <path id="Path_510" data-name="Path 510" d="M.4,7.977H4.48v13.15H.4Z" transform="translate(-0.071 -1.127)" fill="#fafafa"/>
      <path id="Path_511" data-name="Path 511" d="M2.365,0A2.376,2.376,0,1,0,4.731,2.365,2.366,2.366,0,0,0,2.365,0Z" fill="#fafafa"/>
    </g>
    <rect id="Rectangle_71" data-name="Rectangle 71" width="24" height="24" transform="translate(-272 -457)" fill="none"/>
  </g>
</svg>
