<svg xmlns="http://www.w3.org/2000/svg" width="24" height="24" viewBox="0 0 24 24">
  <g id="Group_146" data-name="Group 146" transform="translate(-989 -594)">
    <rect id="Rectangle_6" data-name="Rectangle 6" width="24" height="24" transform="translate(989 594)" fill="none"/>
    <g id="twitter_5_" data-name="twitter (5)" transform="translate(991 550)">
      <g id="Group_48" data-name="Group 48" transform="translate(0 48)">
        <path id="Path_508" data-name="Path 508" d="M20,49.894a8.653,8.653,0,0,1-2.363.638,4.026,4.026,0,0,0,1.8-2.231,8.272,8.272,0,0,1-2.6.977A4.139,4.139,0,0,0,13.846,48a4.082,4.082,0,0,0-4,4.959,11.666,11.666,0,0,1-8.451-4.223,4,4,0,0,0,1.26,5.4,4.1,4.1,0,0,1-1.853-.5v.044a4.072,4.072,0,0,0,3.285,3.967,4.153,4.153,0,0,1-1.075.133,3.68,3.68,0,0,1-.776-.069,4.132,4.132,0,0,0,3.831,2.812A8.321,8.321,0,0,1,.981,62.244,7.8,7.8,0,0,1,0,62.188,11.674,11.674,0,0,0,6.29,64,11.5,11.5,0,0,0,17.96,52.512c0-.178-.006-.351-.015-.522A8.111,8.111,0,0,0,20,49.894Z" transform="translate(0 -48)" fill="#fafafa"/>
      </g>
    </g>
  </g>
</svg>
