<svg xmlns="http://www.w3.org/2000/svg" width="32.5" height="27.339" viewBox="0 0 32.5 27.339">
  <g id="monitor" transform="translate(-7.75 -47.75)">
    <path id="Path_914" data-name="Path 914" d="M38.194,48H9.806A1.808,1.808,0,0,0,8,49.806V68.9A1.808,1.808,0,0,0,9.806,70.71H20.274l-.31,1.548H17.806a.516.516,0,0,0-.516.516v1.548a.516.516,0,0,0,.516.516H30.194a.516.516,0,0,0,.516-.516V72.774a.516.516,0,0,0-.516-.516H28.036l-.31-1.548H38.194A1.808,1.808,0,0,0,40,68.9v-19.1A1.808,1.808,0,0,0,38.194,48ZM29.677,73.29v.516H18.323V73.29Zm-8.661-1.032.31-1.548h5.347l.31,1.548ZM38.968,68.9a.775.775,0,0,1-.774.774H9.806a.775.775,0,0,1-.774-.774v-1.29H38.968Zm0-2.323H9.032V49.806a.775.775,0,0,1,.774-.774H38.194a.775.775,0,0,1,.774.774Z" fill="#fafafa" stroke="#fafafa" stroke-width="0.5"/>
    <path id="Path_915" data-name="Path 915" d="M241.548,360h-1.032a.516.516,0,1,0,0,1.032h1.032a.516.516,0,1,0,0-1.032Z" transform="translate(-217.032 -291.871)" fill="#fafafa" stroke="#fafafa" stroke-width="0.5"/>
  </g>
</svg>
