<svg xmlns="http://www.w3.org/2000/svg" width="40.682" height="40.681" viewBox="0 0 40.682 40.681">
  <g id="Page-1" transform="translate(1.002 1.001)">
    <g id="_001---Thinking" data-name="001---Thinking" transform="translate(-1.002 -1.001)">
      <path id="Shape" d="M2,26.351a4.97,4.97,0,0,0,.7.407c.294.15.784.4.819.577a1.171,1.171,0,0,1-.079.686c-.1.217-.207.4-.3.565-.249.438-.664,1.172-.037,1.685.146.136.4.332.631.509a1.709,1.709,0,0,0-.221.978.978.978,0,0,0,.4.664c.153.108.316.2.475.295.4.227.555.333.61.542a1.872,1.872,0,0,1-.075.821c-.04.176-.079.352-.1.532a3.985,3.985,0,0,0,.229,1.827,2.54,2.54,0,0,0,2.4,1.851A2.755,2.755,0,0,0,8,38.232a51.4,51.4,0,0,0,5.716-1.711c1.527.9,2.492,3.622,2.744,4.645a.678.678,0,0,0,.658.514l17.018-.047a.678.678,0,0,0,.645-.881,5.237,5.237,0,0,0-.687-1.288,6.291,6.291,0,0,1-.439-.732,12.907,12.907,0,0,1-.765-1.93,22.853,22.853,0,0,1-.8-4.011,11.479,11.479,0,0,1,.891-5.954,15.156,15.156,0,0,1,1.841-2.911c.407-.549.829-1.118,1.208-1.715a10.486,10.486,0,0,0,1.4-3.3.678.678,0,0,0-1.321-.306,9.153,9.153,0,0,1-1.22,2.882c-.352.557-.759,1.1-1.153,1.635a16.384,16.384,0,0,0-2,3.176,12.826,12.826,0,0,0-.994,6.658,24.066,24.066,0,0,0,.855,4.253,14.132,14.132,0,0,0,.841,2.124,7.409,7.409,0,0,0,.525.881l.045.068-15.379.046a10.812,10.812,0,0,0-2.387-4.33l.61-.212c.456-.159.8-.279.977-.339,2.9-.925,4.356-2.248,4.316-3.932a.666.666,0,0,0-.692-.658.678.678,0,0,0-.662.694c.016.694-.555,1.709-3.374,2.607-.184.059-.542.183-1.011.348-.5.176-1.142.4-1.848.639h0A52.808,52.808,0,0,1,7.733,36.9a1.208,1.208,0,0,1-1.4-.9,2.712,2.712,0,0,1-.167-1.2c.02-.136.052-.278.083-.416a2.959,2.959,0,0,0,.068-1.46,2.247,2.247,0,0,0-1.252-1.384l-.146-.083a2.5,2.5,0,0,1,.262-.42.678.678,0,0,0-.131-.965c-.162-.119-.542-.407-.827-.633.033-.059.068-.124.1-.182.106-.187.228-.407.346-.656a2.531,2.531,0,0,0,.18-1.517c-.162-.827-.955-1.233-1.533-1.528a3.917,3.917,0,0,1-.559-.325,2.89,2.89,0,0,1-.407-.33c0-.1.111-.352.626-.98a27.356,27.356,0,0,0,3.1-5.041,2.015,2.015,0,0,0,.262-.917,2.373,2.373,0,0,0-.995-1.7c-.275-.252-.534-.49-.563-.69a1.332,1.332,0,0,1,.11-.482c.111-.29.239-.575.366-.86A9.951,9.951,0,0,0,5.942,12.4a18.185,18.185,0,0,1,.61-2.243A11.624,11.624,0,0,1,8.985,6.179a11.166,11.166,0,0,1,6.076-2.888,44.057,44.057,0,0,1,6.361-.917,14.841,14.841,0,0,1,2.159.046.68.68,0,1,0,.126-1.353,16.492,16.492,0,0,0-2.357-.047,45.256,45.256,0,0,0-6.558.941A12.326,12.326,0,0,0,8,5.247a12.968,12.968,0,0,0-2.72,4.436,19.823,19.823,0,0,0-.668,2.45,8.781,8.781,0,0,1-.582,1.546c-.136.308-.275.617-.4.938a2.369,2.369,0,0,0-.184,1.138,2.607,2.607,0,0,0,.992,1.509c.332.3.551.519.554.706a1.148,1.148,0,0,1-.115.294,26.171,26.171,0,0,1-2.967,4.821,2.822,2.822,0,0,0-.9,1.995A2.077,2.077,0,0,0,2,26.351Z" transform="translate(-0.998 -0.999)" fill="#fafafa"/>
      <path id="Shape-2" data-name="Shape" d="M29.718,4.8l-.407,2.029A8.076,8.076,0,0,0,28.17,7.3L26.448,6.147a1.356,1.356,0,0,0-1.7.177L23.62,7.449a1.356,1.356,0,0,0-.179,1.719l1.147,1.713a8.073,8.073,0,0,0-.475,1.142l-2.026.407A1.356,1.356,0,0,0,21,13.76v1.6a1.356,1.356,0,0,0,1.085,1.33l2.029.407a8.073,8.073,0,0,0,.475,1.142L23.435,19.96a1.356,1.356,0,0,0,.177,1.7l1.125,1.125a1.36,1.36,0,0,0,1.718.178l1.713-1.147a8.072,8.072,0,0,0,1.142.475l.407,2.026a1.356,1.356,0,0,0,1.33,1.088h1.6a1.356,1.356,0,0,0,1.33-1.085l.407-2.029a8.072,8.072,0,0,0,1.142-.475l1.721,1.153a1.356,1.356,0,0,0,1.7-.177l1.125-1.125a1.356,1.356,0,0,0,.179-1.719l-1.147-1.713a8.073,8.073,0,0,0,.475-1.142l2.026-.407a1.351,1.351,0,0,0,.934-.706l1.022.685a1.238,1.238,0,0,0,.658.191,1.22,1.22,0,0,0,.866-.36l.9-.9a1.231,1.231,0,0,0,.158-1.542l-.875-1.309a6.377,6.377,0,0,0,.328-.788l1.534-.306a1.22,1.22,0,0,0,.985-1.2V9.177a1.22,1.22,0,0,0-.98-1.2L45.6,7.669a6.28,6.28,0,0,0-.327-.788l.888-1.324a1.225,1.225,0,0,0-.169-1.524l-.9-.9a1.231,1.231,0,0,0-1.542-.158l-1.309.875a6.374,6.374,0,0,0-.788-.328l-.306-1.534A1.22,1.22,0,0,0,39.943,1H38.669a1.22,1.22,0,0,0-1.2.98l-.307,1.541a6.276,6.276,0,0,0-.788.329l-1.324-.888a1.227,1.227,0,0,0-1.524.17l-.61.61a1.389,1.389,0,0,0-.266-.029h-1.6A1.356,1.356,0,0,0,29.718,4.8ZM40.084,7.455l-.317-.317a2.7,2.7,0,0,1,.843,5.09l-1.029-.2a8.073,8.073,0,0,0-.475-1.142l1.153-1.721a1.356,1.356,0,0,0-.175-1.7ZM34.409,4.162,35.959,5.2a.678.678,0,0,0,.724.02A4.959,4.959,0,0,1,37.924,4.7a.678.678,0,0,0,.488-.522l.364-1.827h1.06L40.2,4.187a.678.678,0,0,0,.488.522,4.959,4.959,0,0,1,1.241.519.678.678,0,0,0,.724-.024l1.55-1.04.753.753L43.917,6.467a.678.678,0,0,0-.02.724,4.959,4.959,0,0,1,.519,1.241.678.678,0,0,0,.522.488l1.831.364v1.06l-1.827.364a.678.678,0,0,0-.522.488,4.958,4.958,0,0,1-.519,1.241.678.678,0,0,0,.02.724l1.04,1.55-.753.753L42.7,14.453V13.76a1.36,1.36,0,0,0-.475-1.033,4.059,4.059,0,0,0-2.827-6.981,3.924,3.924,0,0,0-1.206.2,1.375,1.375,0,0,0-.949.209L35.527,7.3a8.076,8.076,0,0,0-1.142-.475L33.978,4.8a1.238,1.238,0,0,0-.047-.16ZM30.56,7.493l.488-2.425h1.6L33.136,7.5a.678.678,0,0,0,.487.521,6.679,6.679,0,0,1,1.6.664.678.678,0,0,0,.717-.023l2.052-1.372,1.136,1.13-1.376,2.054a.678.678,0,0,0-.023.717,6.679,6.679,0,0,1,.664,1.6.678.678,0,0,0,.521.487l2.425.485v1.6l-2.427.487a.678.678,0,0,0-.521.487,6.679,6.679,0,0,1-.664,1.6.678.678,0,0,0,.023.717L39.123,20.7l-1.13,1.136-2.054-1.376a.678.678,0,0,0-.717-.023,6.679,6.679,0,0,1-1.6.664.678.678,0,0,0-.487.521l-.485,2.425h-1.6l-.487-2.427a.678.678,0,0,0-.487-.521,6.679,6.679,0,0,1-1.6-.664.678.678,0,0,0-.717.023L25.7,21.835,24.567,20.7l1.376-2.054a.678.678,0,0,0,.023-.717,6.679,6.679,0,0,1-.664-1.6.678.678,0,0,0-.521-.487l-2.425-.485v-1.6l2.427-.487a.678.678,0,0,0,.521-.487,6.679,6.679,0,0,1,.664-1.6.678.678,0,0,0-.023-.717L24.573,8.415,25.7,7.279l2.054,1.376a.678.678,0,0,0,.717.023,6.679,6.679,0,0,1,1.6-.664A.678.678,0,0,0,30.56,7.493Z" transform="translate(-7.438 -0.999)" fill="#fafafa"/>
      <path id="Shape-3" data-name="Shape" d="M34.746,23.492A4.746,4.746,0,1,0,30,18.746,4.746,4.746,0,0,0,34.746,23.492Zm0-8.136a3.39,3.39,0,1,1-3.39,3.39A3.39,3.39,0,0,1,34.746,15.356Z" transform="translate(-10.336 -5.185)" fill="#fafafa"/>
    </g>
  </g>
</svg>
