<svg xmlns="http://www.w3.org/2000/svg" width="27.406" height="30.728" viewBox="0 0 27.406 30.728">
  <g id="profile_2_" data-name="profile (2)" transform="translate(5.977 -0.75)">
    <path id="Path_912" data-name="Path 912" d="M93.662,15.082a7.541,7.541,0,1,0-7.541-7.541A7.541,7.541,0,0,0,93.662,15.082Zm0-13.8A6.263,6.263,0,1,1,87.4,7.541,6.263,6.263,0,0,1,93.662,1.278Zm0,0" transform="translate(-85.824 1)" fill="#fafafa" stroke="#fafafa" stroke-width="0.5"/>
    <path id="Path_913" data-name="Path 913" d="M9.726,331.313A13.187,13.187,0,0,0,.21,335.285a14.152,14.152,0,0,0-3.937,10,.71.71,0,0,0,.708.708h25.49a.71.71,0,0,0,.708-.708,14.136,14.136,0,0,0-3.937-9.991,13.2,13.2,0,0,0-9.516-3.979ZM-2.3,344.575a12.646,12.646,0,0,1,3.512-8.291,11.8,11.8,0,0,1,8.5-3.547,11.8,11.8,0,0,1,8.5,3.547,12.611,12.611,0,0,1,3.512,8.291Zm0,0" transform="translate(-2 -314.763)" fill="#fafafa" stroke="#fafafa" stroke-width="0.5"/>
  </g>
</svg>
