<svg xmlns="http://www.w3.org/2000/svg" width="443.598" height="314.458" viewBox="0 0 443.598 314.458">
  <g id="Mail_sent-amico" data-name="Mail sent-amico" transform="translate(0 0)">
    <g id="freepik--Floor--inject-38" transform="translate(0 90.617)">
      <path id="Path_1901" data-name="Path 1901" d="M90.629,374.114c83.669,43.707,219.313,43.707,302.972,0s83.669-114.574,0-158.281-219.313-43.707-302.972,0S6.96,330.407,90.629,374.114Z" transform="translate(-27.881 -183.053)" fill="#f9f9f9"/>
    </g>
    <g id="freepik--Shadow--inject-38" transform="translate(248.806 213.984)">
      <path id="Path_1902" data-name="Path 1902" d="M291.809,315.118c-19.682,11.354-19.682,29.777,0,41.141s51.576,11.364,71.257,0,19.672-29.787,0-41.141S311.48,303.754,291.809,315.118Z" transform="translate(-277.047 -306.599)" fill="#ededed"/>
    </g>
    <g id="freepik--paper-planes--inject-38" transform="translate(15.945 9.812)">
      <path id="Path_1903" data-name="Path 1903" d="M84.31,152.006l52.724-16.4-40.561,28.1Z" transform="translate(-43.908 -102.18)" fill="#9164e8"/>
      <path id="Path_1904" data-name="Path 1904" d="M137.01,135.607l-56.788,9.366L68.06,133.26Z" transform="translate(-43.885 -102.176)" fill="#9164e8"/>
      <path id="Path_1905" data-name="Path 1905" d="M80.24,144.976v14.05l4.064-7.02,52.724-16.4Z" transform="translate(-43.902 -102.18)" fill="#455a64"/>
      <path id="Path_1906" data-name="Path 1906" d="M80.24,159.05l8.118-3.115-4.054-3.9Z" transform="translate(-43.902 -102.203)" fill="#9164e8"/>
      <path id="Path_1907" data-name="Path 1907" d="M84.31,152.03l4.054,3.9-1.3.489Z" transform="translate(-43.908 -102.203)" fill="#455a64"/>
      <path id="Path_1908" data-name="Path 1908" d="M71.489,156.936a.749.749,0,0,1-.369-1.408c.9-.5,1.807-1,2.706-1.388a.749.749,0,1,1,.649,1.348c-.869.419-1.757.869-2.626,1.358A.8.8,0,0,1,71.489,156.936Z" transform="translate(-43.888 -102.206)" fill="#e0e0e0"/>
      <path id="Path_1909" data-name="Path 1909" d="M62.233,237.585a.749.749,0,0,1-.429-.13,40.942,40.942,0,0,1-4.6-3.775.749.749,0,1,1,1-1.088,38.941,38.941,0,0,0,4.444,3.635.749.749,0,0,1-.439,1.358ZM54.4,230.315a.739.739,0,0,1-.579-.27,40.882,40.882,0,0,1-3.425-4.863.753.753,0,0,1,1.288-.779,39.941,39.941,0,0,0,3.3,4.693.749.749,0,0,1-.1,1.048.719.719,0,0,1-.479.17Zm-5.622-9.087a.749.749,0,0,1-.689-.439,46.863,46.863,0,0,1-2.1-5.562.749.749,0,0,1,1.428-.439,45.6,45.6,0,0,0,2,5.382.749.749,0,0,1-.369,1,.7.7,0,0,1-.27.06Zm-3.245-10.2a.749.749,0,0,1-.729-.609A51.926,51.926,0,0,1,44,204.553a.751.751,0,1,1,1.5-.12,48.648,48.648,0,0,0,.779,5.7.739.739,0,0,1-.589.879Zm-.949-10.665h0a.739.739,0,0,1-.739-.759,53.264,53.264,0,0,1,.4-5.911.749.749,0,1,1,1.478.18,52.922,52.922,0,0,0-.379,5.752.749.749,0,0,1-.759.739Zm1.218-10.635a.5.5,0,0,1-.17,0,.749.749,0,0,1-.569-.889,46.692,46.692,0,0,1,1.678-5.7.749.749,0,0,1,1-.449.759.759,0,0,1,.449,1,45.334,45.334,0,0,0-1.618,5.512.749.749,0,0,1-.769.529Zm3.555-10.085a.619.619,0,0,1-.33-.08.739.739,0,0,1-.349-1,48.209,48.209,0,0,1,2.936-5.163.749.749,0,0,1,1-.21.739.739,0,0,1,.22,1,45.285,45.285,0,0,0-2.846,4.993A.739.739,0,0,1,49.362,179.649Zm5.742-8.987a.719.719,0,0,1-.459-.16.749.749,0,0,1-.12-1.058,52.923,52.923,0,0,1,3.994-4.4.748.748,0,0,1,1.058,1.058,53.5,53.5,0,0,0-3.854,4.284.739.739,0,0,1-.619.24Zm7.509-7.669a.739.739,0,0,1-.569-.27.759.759,0,0,1,.09-1.058,58.68,58.68,0,0,1,4.743-3.555.749.749,0,0,1,1,.2.759.759,0,0,1-.2,1.048,55.756,55.756,0,0,0-4.623,3.465A.779.779,0,0,1,62.613,162.993Z" transform="translate(-43.85 -102.212)" fill="#e0e0e0"/>
      <path id="Path_1910" data-name="Path 1910" d="M69.135,241.606a.7.7,0,0,1-.31-.07c-.929-.419-1.847-.869-2.726-1.348a.739.739,0,0,1-.31-1,.749.749,0,0,1,1-.31c.859.459,1.747.9,2.646,1.308a.749.749,0,0,1-.31,1.428Z" transform="translate(-43.881 -102.328)" fill="#e0e0e0"/>
      <path id="Path_1911" data-name="Path 1911" d="M411.19,205.281l42.239-27.041,18.6,5.971Z" transform="translate(-44.38 -102.241)" fill="#9164e8"/>
      <path id="Path_1912" data-name="Path 1912" d="M411.19,205.262,447.7,174.826l-8.118-9.366Z" transform="translate(-44.38 -102.223)" fill="#9164e8"/>
      <path id="Path_1913" data-name="Path 1913" d="M447.7,174.84v7.06L411.19,205.276Z" transform="translate(-44.38 -102.236)" fill="#455a64"/>
      <path id="Path_1914" data-name="Path 1914" d="M455.849,171.789a.719.719,0,0,1-.489-.19.759.759,0,0,1-.07-1.058,29.588,29.588,0,0,0,3.445-4.7.752.752,0,1,1,1.3.759,32.322,32.322,0,0,1-3.615,4.943A.749.749,0,0,1,455.849,171.789Zm5.712-9.307a.858.858,0,0,1-.27,0,.749.749,0,0,1-.419-1,30.321,30.321,0,0,0,1.578-5.622.751.751,0,1,1,1.478.27,32.272,32.272,0,0,1-1.668,5.891.739.739,0,0,1-.7.459Zm2.137-10.715h0a.739.739,0,0,1-.729-.759v-.779a33.365,33.365,0,0,0-.4-5.063.759.759,0,0,1,.629-.859.769.769,0,0,1,.859.629,35.086,35.086,0,0,1,.409,5.292v.809a.759.759,0,0,1-.769.729Zm-1.508-10.824a.739.739,0,0,1-.709-.539,37.773,37.773,0,0,0-2.147-5.462.739.739,0,0,1,.35-1,.749.749,0,0,1,1,.35,38.07,38.07,0,0,1,2.227,5.682.739.739,0,0,1-.5.929A.57.57,0,0,1,462.19,140.944Zm-4.633-9.916a.729.729,0,0,1-.629-.35,44.726,44.726,0,0,0-3.525-4.7.749.749,0,0,1,.08-1.058.739.739,0,0,1,1.048.08,45.58,45.58,0,0,1,3.655,4.873.769.769,0,0,1-.22,1,.779.779,0,0,1-.409.15Zm-6.99-8.4a.729.729,0,0,1-.509-.21,54.4,54.4,0,0,0-4.523-3.795.749.749,0,1,1,.9-1.2,54.026,54.026,0,0,1,4.653,3.9.749.749,0,0,1-.519,1.3Zm-8.757-6.65a.749.749,0,0,1-.4-.12c-.679-.419-1.388-.839-2.107-1.248-1-.559-2-1.118-3.056-1.648a.749.749,0,1,1,.679-1.328c1.048.539,2.1,1.1,3.115,1.678.739.409,1.458.839,2.157,1.278a.749.749,0,0,1,.25,1A.769.769,0,0,1,441.81,115.98Zm-89.521-.509a.759.759,0,0,1-.649-.379.739.739,0,0,1,.27-1c1.737-1,3.525-2,5.332-2.836a.749.749,0,0,1,1,.34.759.759,0,0,1-.35,1c-1.777.869-3.535,1.8-5.242,2.786a.709.709,0,0,1-.359.07Zm79.785-4.563a.659.659,0,0,1-.3-.07c-1.8-.789-3.655-1.528-5.512-2.187a.753.753,0,0,1,.509-1.418c1.887.679,3.775,1.428,5.612,2.237a.749.749,0,0,1-.31,1.438Zm-69.949-.31a.739.739,0,0,1-.689-.459.749.749,0,0,1,.4-1c1.847-.779,3.745-1.5,5.642-2.147a.749.749,0,0,1,1,.459.769.769,0,0,1-.469,1c-1.867.639-3.745,1.348-5.552,2.107a.789.789,0,0,1-.33.02Zm59.644-3.455a.759.759,0,0,1-.21,0c-1.887-.549-3.824-1-5.752-1.468a.751.751,0,1,1,.32-1.468c2,.429,3.934.939,5.852,1.5a.749.749,0,0,1-.21,1.468Zm-49.279-.15a.749.749,0,0,1-.719-.549.739.739,0,0,1,.509-.919c1.927-.539,3.9-1,5.871-1.438a.749.749,0,1,1,.31,1.458c-1.937.409-3.874.889-5.772,1.418Zm38.574-2.257h-.15c-1.947-.31-3.934-.559-5.891-.739a.749.749,0,1,1,.13-1.488q3,.27,5.991.749a.759.759,0,0,1,.619.859.749.749,0,0,1-.7.589Zm-27.85-.07a.749.749,0,0,1-.739-.629.759.759,0,0,1,.629-.859c2-.3,3.994-.549,5.991-.719a.752.752,0,1,1,.13,1.5c-2,.17-3.944.4-5.891.709Zm16.926-1h0c-2-.07-3.994-.08-5.941,0a.729.729,0,0,1-.769-.719.739.739,0,0,1,.729-.769c2-.07,3.994-.06,5.991,0a.749.749,0,0,1,.729.769.759.759,0,0,1-.739.7Z" transform="translate(-44.294 -102.131)" fill="#e0e0e0"/>
    </g>
    <g id="freepik--Plants--inject-38" transform="translate(22.114 104.228)">
      <path id="Path_1926" data-name="Path 1926" d="M81.644,318.952a.509.509,0,0,1-.5-.419c-2.626-15.977-21.129-28.888-30.756-31.664a.489.489,0,0,1-.34-.619.5.5,0,0,1,.619-.34c9.836,2.846,28.768,16.117,31.465,32.463a.5.5,0,0,1-.409.569Z" transform="translate(-50.027 -196.812)" fill="#fff"/>
      <path id="Path_1927" data-name="Path 1927" d="M59.829,305.6a.5.5,0,0,1-.26-.929c.3-.18,7.429-4.344,14.439-2.4a.516.516,0,0,1-.26,1c-6.61-1.837-13.6,2.247-13.67,2.287a.45.45,0,0,1-.25.04Z" transform="translate(-50.041 -196.835)" fill="#fff"/>
      <path id="Path_1930" data-name="Path 1930" d="M341.059,233.786H341a.5.5,0,0,1-.389-.589c3.675-18.164,23.716-34.79,28.6-36.487a.526.526,0,1,1,.329,1c-4.773,1.658-24.355,17.974-27.96,35.738a.509.509,0,0,1-.519.339Z" transform="translate(-50.447 -196.683)" fill="#fff"/>
    </g>
    <g id="freepik--Envelopes--inject-38" transform="translate(48.928 0)">
      <path id="Path_1931" data-name="Path 1931" d="M76.88,227.272a5.732,5.732,0,0,1,2.6-4.493l132.718-76.629a5.772,5.772,0,0,1,5.183,0l2.926,1.7a5.7,5.7,0,0,1,2.6,4.494V254.073a5.762,5.762,0,0,1-2.6,4.493L87.585,335.186a5.732,5.732,0,0,1-5.193,0L79.476,333.5A5.752,5.752,0,0,1,76.88,329Z" transform="translate(-76.88 -92.382)" fill="#9164e8"/>
      <path id="Path_1932" data-name="Path 1932" d="M76.88,227.272a5.732,5.732,0,0,1,2.6-4.493l132.718-76.629a5.772,5.772,0,0,1,5.183,0l2.926,1.7a5.7,5.7,0,0,1,2.6,4.494V254.073a5.762,5.762,0,0,1-2.6,4.493L87.585,335.186a5.732,5.732,0,0,1-5.193,0L79.476,333.5A5.752,5.752,0,0,1,76.88,329Z" transform="translate(-76.88 -92.382)" opacity="0.3"/>
      <path id="Path_1933" data-name="Path 1933" d="M89.042,231.42l-11.4-6.59a5.312,5.312,0,0,0-.759,2.556V329.119a5.752,5.752,0,0,0,2.6,4.493l2.916,1.688a5.732,5.732,0,0,0,5.193,0l1.458-.839Z" transform="translate(-76.88 -92.496)" fill="#9164e8"/>
      <path id="Path_1934" data-name="Path 1934" d="M89.042,231.42l-11.4-6.59a5.312,5.312,0,0,0-.759,2.556V329.119a5.752,5.752,0,0,0,2.6,4.493l2.916,1.688a5.732,5.732,0,0,0,5.193,0l1.458-.839Z" transform="translate(-76.88 -92.496)" opacity="0.5"/>
      <path id="Path_1935" data-name="Path 1935" d="M222.911,152.348V254.081a5.292,5.292,0,0,1-.809,2.626,5.562,5.562,0,0,1-1.518,1.7l-.1.06-.17.11L87.6,335.194h0a1.847,1.847,0,0,1-1.767.2A1.787,1.787,0,0,1,85,333.736V231.963a2.257,2.257,0,0,1,2.916-2.3l55.809,13.271,7.309,1.738a4.813,4.813,0,0,0,4.663-1.747l8.468-11.793,57-79.355C222.122,150.441,222.911,150.69,222.911,152.348Z" transform="translate(-76.892 -92.39)" fill="#9164e8"/>
      <path id="Path_1936" data-name="Path 1936" d="M222.911,152.348V254.081a5.292,5.292,0,0,1-.809,2.626,5.562,5.562,0,0,1-1.518,1.7l-.1.06-.17.11L87.6,335.194h0a1.847,1.847,0,0,1-1.767.2A1.787,1.787,0,0,1,85,333.736V231.963a2.257,2.257,0,0,1,2.916-2.3l55.809,13.271,7.309,1.738a4.813,4.813,0,0,0,4.663-1.747l8.468-11.793,57-79.355C222.122,150.441,222.911,150.69,222.911,152.348Z" transform="translate(-76.892 -92.39)" opacity="0.2"/>
      <path id="Path_1937" data-name="Path 1937" d="M220.429,258.69l.17-.11.1-.06a5.563,5.563,0,0,0,1.518-1.7,5.262,5.262,0,0,0,.809-2.586L164.28,231.27l39.343,37.146Z" transform="translate(-77.006 -92.506)" fill="#9164e8"/>
      <path id="Path_1938" data-name="Path 1938" d="M220.429,258.69l.17-.11.1-.06a5.563,5.563,0,0,0,1.518-1.7,5.262,5.262,0,0,0,.809-2.586L164.28,231.27l39.343,37.146Z" transform="translate(-77.006 -92.506)" opacity="0.6"/>
      <path id="Path_1939" data-name="Path 1939" d="M85,333.869a1.787,1.787,0,0,0,.809,1.708,1.847,1.847,0,0,0,1.767-.2h0L133.29,308.9,143.725,243,85,332.141Z" transform="translate(-76.892 -92.523)" fill="#9164e8"/>
      <path id="Path_1940" data-name="Path 1940" d="M85,333.869a1.787,1.787,0,0,0,.809,1.708,1.847,1.847,0,0,0,1.767-.2h0L133.29,308.9,143.725,243,85,332.141Z" transform="translate(-76.892 -92.523)" opacity="0.6"/>
      <path id="Path_1941" data-name="Path 1941" d="M222.1,256.82a5.562,5.562,0,0,1-1.518,1.7l-.1.06L87.6,335.307h0a1.847,1.847,0,0,1-1.767.2l63.558-101.463a9.986,9.986,0,0,1,12.5-3.814Z" transform="translate(-76.893 -92.503)" fill="#9164e8"/>
      <path id="Path_1942" data-name="Path 1942" d="M222.1,256.82a5.562,5.562,0,0,1-1.518,1.7l-.1.06L87.6,335.307h0a1.847,1.847,0,0,1-1.767.2l63.558-101.463a9.986,9.986,0,0,1,12.5-3.814Z" transform="translate(-76.893 -92.503)" opacity="0.2"/>
      <path id="Path_1943" data-name="Path 1943" d="M85,228.965l61.042,26.961a9.986,9.986,0,0,0,12.5-3.844l64.1-102.582Z" transform="translate(-76.892 -92.388)" fill="#9164e8"/>
      <path id="Path_1944" data-name="Path 1944" d="M85,228.965l61.042,26.961a9.986,9.986,0,0,0,12.5-3.844l64.1-102.582Z" transform="translate(-76.892 -92.388)" opacity="0.6"/>
      <path id="Path_1945" data-name="Path 1945" d="M85,228.965l61.471,22.967a9.986,9.986,0,0,0,11.853-3.894L222.641,149.5Z" transform="translate(-76.892 -92.388)" fill="#9164e8"/>
      <path id="Path_1946" data-name="Path 1946" d="M85,228.965l61.471,22.967a9.986,9.986,0,0,0,11.853-3.894L222.641,149.5Z" transform="translate(-76.892 -92.388)" opacity="0.2"/>
      <path id="Path_1947" data-name="Path 1947" d="M99.58,239.822a5.7,5.7,0,0,1,2.6-4.493L234.895,158.7a5.732,5.732,0,0,1,5.192,0l2.926,1.688a5.732,5.732,0,0,1,2.586,4.493V266.613a5.752,5.752,0,0,1-2.586,4.494L110.285,347.726a5.772,5.772,0,0,1-5.183,0l-2.926-1.688a5.762,5.762,0,0,1-2.6-4.493Z" transform="translate(-76.913 -92.4)" fill="#455a64"/>
      <path id="Path_1948" data-name="Path 1948" d="M99.58,239.822a5.7,5.7,0,0,1,2.6-4.493L234.895,158.7a5.732,5.732,0,0,1,5.192,0l2.926,1.688a5.732,5.732,0,0,1,2.586,4.493V266.613a5.752,5.752,0,0,1-2.586,4.494L110.285,347.726a5.772,5.772,0,0,1-5.183,0l-2.926-1.688a5.762,5.762,0,0,1-2.6-4.493Z" transform="translate(-76.913 -92.4)" fill="#455a64"/>
      <path id="Path_1949" data-name="Path 1949" d="M111.752,243.991l-11.413-6.58a5.282,5.282,0,0,0-.759,2.556v101.7a5.762,5.762,0,0,0,2.6,4.493l2.926,1.688a5.772,5.772,0,0,0,5.183,0l1.468-.849Z" transform="translate(-76.913 -92.514)" fill="#263238"/>
      <path id="Path_1950" data-name="Path 1950" d="M245.621,164.888V266.621a5.292,5.292,0,0,1-.809,2.626,5.561,5.561,0,0,1-1.518,1.7l-.1.06-.17.11L110.306,347.734h0a1.847,1.847,0,0,1-1.767.2,1.787,1.787,0,0,1-.809-1.707V244.5a2.257,2.257,0,0,1,2.916-2.3l55.809,13.271,7.309,1.737a4.813,4.813,0,0,0,4.663-1.747l8.458-11.793,57-79.355C244.8,163,245.621,163.23,245.621,164.888Z" transform="translate(-76.924 -92.408)" fill="#37474f"/>
      <path id="Path_1951" data-name="Path 1951" d="M243.139,271.23l.17-.11.1-.06a5.562,5.562,0,0,0,1.518-1.7,5.282,5.282,0,0,0,.8-2.576L186.99,243.82l39.333,37.126Z" transform="translate(-77.039 -92.524)" fill="#263238"/>
      <path id="Path_1952" data-name="Path 1952" d="M107.71,346.369a1.787,1.787,0,0,0,.809,1.708,1.847,1.847,0,0,0,1.767-.2h0l45.694-26.382,10.435-65.9L107.69,344.661Z" transform="translate(-76.924 -92.541)" fill="#263238"/>
      <path id="Path_1953" data-name="Path 1953" d="M244.8,269.36a5.561,5.561,0,0,1-1.518,1.7l-.1.06L110.307,347.847h0a1.847,1.847,0,0,1-1.767.2l63.548-101.453a9.986,9.986,0,0,1,12.5-3.834Z" transform="translate(-76.926 -92.521)" fill="#37474f"/>
      <path id="Path_1954" data-name="Path 1954" d="M107.71,241.515l61.042,26.961a9.986,9.986,0,0,0,12.492-3.844L245.341,162Z" transform="translate(-76.924 -92.406)" fill="#263238"/>
      <path id="Path_1955" data-name="Path 1955" d="M107.71,241.515l61.461,22.967a9.986,9.986,0,0,0,11.863-3.894L245.341,162Z" transform="translate(-76.924 -92.406)" fill="#37474f"/>
      <path id="Path_1956" data-name="Path 1956" d="M197.07,320.522V218.789a10.923,10.923,0,0,1,1.747-5.422l63.3-88.143a9.986,9.986,0,0,1,10.425-3.894l59.524,14.15a24.964,24.964,0,0,1,5.512,2.2l2.926,1.688a5.761,5.761,0,0,1,2.586,4.493V245.59a5.782,5.782,0,0,1-2.586,4.493L207.774,326.7a5.742,5.742,0,0,1-5.183,0l-2.926-1.688A5.752,5.752,0,0,1,197.07,320.522Z" transform="translate(-77.053 -92.346)" fill="#9164e8"/>
      <path id="Path_1957" data-name="Path 1957" d="M197.07,320.522V218.789a10.923,10.923,0,0,1,1.747-5.422l63.3-88.143a9.986,9.986,0,0,1,10.425-3.894l59.524,14.15a24.964,24.964,0,0,1,5.512,2.2l2.926,1.688a5.761,5.761,0,0,1,2.586,4.493V245.59a5.782,5.782,0,0,1-2.586,4.493L207.774,326.7a5.742,5.742,0,0,1-5.183,0l-2.926-1.688A5.752,5.752,0,0,1,197.07,320.522Z" transform="translate(-77.053 -92.346)" fill="#fff" opacity="0.3"/>
      <path id="Path_1958" data-name="Path 1958" d="M209.25,169.579V299.391c0,1.648,1.168,2.327,2.6,1.5l124.61-71.9a5.722,5.722,0,0,0,2.6-4.493V94.687c0-1.658-1.158-2.327-2.6-1.5l-124.61,71.9A5.732,5.732,0,0,0,209.25,169.579Z" transform="translate(-77.071 -92.306)" fill="#fafafa"/>
      <path id="Path_1959" data-name="Path 1959" d="M210.687,301.757a1.827,1.827,0,0,1-.919-.24,2.267,2.267,0,0,1-1-2.107V169.6a6.221,6.221,0,0,1,2.846-4.933l124.61-71.9a2.067,2.067,0,0,1,3.345,1.937V224.519a6.191,6.191,0,0,1-2.846,4.923l-124.61,71.9a2.846,2.846,0,0,1-1.428.419ZM337.614,93.279a1.918,1.918,0,0,0-.909.29L212.1,165.514a5.272,5.272,0,0,0-2.347,4.064V299.391a1.108,1.108,0,0,0,1.847,1.068l124.61-71.9a5.262,5.262,0,0,0,2.347-4.064V94.687a1.388,1.388,0,0,0-.509-1.248A.859.859,0,0,0,337.614,93.279Z" transform="translate(-77.07 -92.305)" fill="#e0e0e0"/>
      <path id="Path_1960" data-name="Path 1960" d="M206.546,221.4l-8.987-5.192a9.507,9.507,0,0,0-.479,2.716V320.659a5.752,5.752,0,0,0,2.6,4.494l2.916,1.688a5.712,5.712,0,0,0,5.182,0l1.248-.709Z" transform="translate(-77.053 -92.484)" fill="#9164e8"/>
      <g id="Group_634" data-name="Group 634" transform="translate(120.027 123.726)" opacity="0.1">
        <path id="Path_1961" data-name="Path 1961" d="M206.546,221.4l-8.987-5.192a9.507,9.507,0,0,0-.479,2.716V320.659a5.752,5.752,0,0,0,2.6,4.494l2.916,1.688a5.712,5.712,0,0,0,5.182,0l1.248-.709Z" transform="translate(-197.08 -216.21)"/>
      </g>
      <path id="Path_1962" data-name="Path 1962" d="M343.111,143.888V245.621a5.292,5.292,0,0,1-.809,2.626,5.561,5.561,0,0,1-1.518,1.7l-.1.06-.17.11L207.8,326.734h0a1.847,1.847,0,0,1-1.767.2,1.787,1.787,0,0,1-.809-1.708V223.5a2.257,2.257,0,0,1,2.916-2.3l55.779,13.271,7.309,1.738a4.813,4.813,0,0,0,4.673-1.747l8.468-11.793,57-79.355C342.322,142,343.111,142.23,343.111,143.888Z" transform="translate(-77.065 -92.377)" fill="#9164e8"/>
      <path id="Path_1963" data-name="Path 1963" d="M343.111,143.888V245.621a5.292,5.292,0,0,1-.809,2.626,5.561,5.561,0,0,1-1.518,1.7l-.1.06-.17.11L207.8,326.734h0a1.847,1.847,0,0,1-1.767.2,1.787,1.787,0,0,1-.809-1.708V223.5a2.257,2.257,0,0,1,2.916-2.3l55.779,13.271,7.309,1.738a4.813,4.813,0,0,0,4.673-1.747l8.468-11.793,57-79.355C342.322,142,343.111,142.23,343.111,143.888Z" transform="translate(-77.065 -92.377)" fill="#fff" opacity="0.3"/>
      <path id="Path_1964" data-name="Path 1964" d="M340.629,250.23l.17-.11.1-.06a5.561,5.561,0,0,0,1.518-1.7,5.312,5.312,0,0,0,.8-2.586L284.48,222.81l39.333,37.136Z" transform="translate(-77.18 -92.493)" fill="#9164e8"/>
      <path id="Path_1965" data-name="Path 1965" d="M205.2,325.369a1.787,1.787,0,0,0,.809,1.707,1.847,1.847,0,0,0,1.767-.2h0l45.694-26.382,10.435-65.9L205.18,323.661Z" transform="translate(-77.065 -92.51)" fill="#9164e8"/>
      <path id="Path_1966" data-name="Path 1966" d="M342.3,248.36a5.561,5.561,0,0,1-1.518,1.7l-.1.06L207.8,326.847h0a1.847,1.847,0,0,1-1.767.2l63.548-101.453a9.986,9.986,0,0,1,12.492-3.834Z" transform="translate(-77.066 -92.491)" fill="#9164e8"/>
      <path id="Path_1967" data-name="Path 1967" d="M342.3,248.36a5.561,5.561,0,0,1-1.518,1.7l-.1.06L207.8,326.847h0a1.847,1.847,0,0,1-1.767.2l63.548-101.453a9.986,9.986,0,0,1,12.492-3.834Z" transform="translate(-77.066 -92.491)" fill="#fff" opacity="0.3"/>
      <path id="Path_1968" data-name="Path 1968" d="M264.187,199.568a7.269,7.269,0,0,1-6.4-2.2c-1.518-1.688-2.277-4.294-2.277-7.8A27.75,27.75,0,0,1,258,178.109a34.65,34.65,0,0,1,6.85-9.986,47.442,47.442,0,0,1,10.385-8.128q5.622-3.235,9.6-3.585c2.666-.24,4.673.449,6.051,2.047s2.057,4.044,2.057,7.319A19.142,19.142,0,0,1,290.7,175.1a15.558,15.558,0,0,1-5.911,6.251,4.354,4.354,0,0,1-3,.779,2,2,0,0,1-1.558-1.508,18.3,18.3,0,0,1-3.135,4.284,19.431,19.431,0,0,1-4.274,3.325c-2.716,1.538-4.883,2-6.481,1.468s-2.357-2.147-2.357-4.843a16.845,16.845,0,0,1,3-9.476,24.064,24.064,0,0,1,8.148-7.469,15.207,15.207,0,0,1,4.384-1.757,6.7,6.7,0,0,1,3.5,0v10.515c0,.849.15,1.368.439,1.568s.769.1,1.448-.29a6.451,6.451,0,0,0,2.646-3.5,17.285,17.285,0,0,0,.949-6.061q0-3.934-1.717-5.722a5.352,5.352,0,0,0-4.7-1.438,17.974,17.974,0,0,0-6.86,2.556,33.571,33.571,0,0,0-11.134,9.986,22.857,22.857,0,0,0-4.094,13.191q0,4.3,1.767,6.281a5.452,5.452,0,0,0,4.873,1.678,17.765,17.765,0,0,0,6.99-2.566,28.575,28.575,0,0,0,4.144-2.916,22.1,22.1,0,0,0,3.265-3.335,1.757,1.757,0,0,1,.349-.34c.09-.05.18,0,.26.12l1.1,2a1.081,1.081,0,0,1,.09.25,1,1,0,0,1-.31.579,30.882,30.882,0,0,1-3.994,3.994,35.166,35.166,0,0,1-4.883,3.435,23.6,23.6,0,0,1-9.456,3.435Zm12.981-18.773a6.69,6.69,0,0,0,1.578-3.994v-6.091a8.608,8.608,0,0,0-3.994,1.378,13.77,13.77,0,0,0-4.733,4.4,10.175,10.175,0,0,0-1.747,5.662c0,1.688.419,2.7,1.268,3s2.157,0,3.944-1.068a12.6,12.6,0,0,0,3.725-3.285Z" transform="translate(-77.138 -92.397)" fill="#e0e0e0"/>
    </g>
    <g id="freepik--Notifications--inject-38" transform="translate(67.561 110.346)">
      <path id="Path_1969" data-name="Path 1969" d="M136.78,209.64,127.044,204h-.07c-3.325-1.877-7.909-1.6-12.981,1.328-10.2,5.881-18.453,20.191-18.453,31.954,0,5.882,2.057,9.986,5.382,11.983h0l9.057,5.182,1.638-2.726a18.973,18.973,0,0,0,5.292-2.057c10.185-5.891,18.453-20.2,18.453-31.954a20.032,20.032,0,0,0-.579-4.713Z" transform="translate(-95.54 -202.81)" fill="#f28f8f"/>
      <path id="Path_1970" data-name="Path 1970" d="M136.78,209.64,127.044,204h-.07c-3.325-1.877-7.909-1.6-12.981,1.328-10.2,5.881-18.453,20.191-18.453,31.954,0,5.882,2.057,9.986,5.382,11.983h0l9.057,5.182,1.638-2.726a18.973,18.973,0,0,0,5.292-2.057c10.185-5.891,18.453-20.2,18.453-31.954a20.032,20.032,0,0,0-.579-4.713Z" transform="translate(-95.54 -202.81)" fill="#9164e8"/>
      <path id="Path_1971" data-name="Path 1971" d="M136.78,209.64,127.044,204h-.07c-3.325-1.877-7.909-1.6-12.981,1.328-10.2,5.881-18.453,20.191-18.453,31.954,0,5.882,2.057,9.986,5.382,11.983h0l9.057,5.182,1.638-2.726a18.973,18.973,0,0,0,5.292-2.057c10.185-5.891,18.453-20.2,18.453-31.954a20.032,20.032,0,0,0-.579-4.713Z" transform="translate(-95.54 -202.81)" opacity="0.4"/>
      <path id="Path_1972" data-name="Path 1972" d="M123.363,210.7c-10.2,5.891-18.453,20.2-18.453,31.954s8.258,16.536,18.453,10.655,18.453-20.191,18.453-31.954S133.559,204.815,123.363,210.7Z" transform="translate(-95.553 -202.818)" fill="#9164e8"/>
      <path id="Path_1973" data-name="Path 1973" d="M116.17,245.481a.26.26,0,0,1-.29-.28,1.537,1.537,0,0,1,.16-.539l.929-2.087a1.058,1.058,0,0,1,.349-.519,1.128,1.128,0,0,1,.439-.1,8.987,8.987,0,0,0,2.436-.489,15.559,15.559,0,0,0,3-1.378,12.132,12.132,0,0,0,3.795-3.215,5.9,5.9,0,0,0,1.228-3.485c0-2.207-1.348-2.526-4.044-1l-2.626,1.588c-.429.24-.729.33-.909.25s-.27-.32-.27-.719v-.829a1.727,1.727,0,0,1,.27-1,2.686,2.686,0,0,1,.909-.779l2.606-1.508a7.13,7.13,0,0,0,2.576-2.387,5.362,5.362,0,0,0,.859-2.806q0-3.205-4.513-.6a19.592,19.592,0,0,0-4.933,3.994,3.147,3.147,0,0,1-.439.409.29.29,0,0,1-.349-.08l-.889-1a.5.5,0,0,1-.16-.359,1,1,0,0,1,.28-.609,19.132,19.132,0,0,1,3-3,30.236,30.236,0,0,1,4.1-2.816,12.881,12.881,0,0,1,4.244-1.688,3.345,3.345,0,0,1,2.766.549,3.305,3.305,0,0,1,1,2.666,8.158,8.158,0,0,1-.719,3.185,11.094,11.094,0,0,1-2,3.155,2.686,2.686,0,0,1,2.556.469,3.565,3.565,0,0,1,.849,2.616,10.475,10.475,0,0,1-2.217,6.091,19.522,19.522,0,0,1-6.271,5.452Q118.616,245.73,116.17,245.481Z" transform="translate(-95.569 -202.833)" fill="#fff"/>
    </g>
    <g id="freepik--Character--inject-38" transform="translate(258.839 135.62)">
      <path id="Path_1974" data-name="Path 1974" d="M325.87,354.087h0l.19-.17c.14-.12.29-.24.419-.369l.449-.439.449-.429a10.454,10.454,0,0,0,.749-.779l3.555,2.656,2.367,1.767a11.553,11.553,0,0,0-2.077,3.165s-.709,1.148-3.115.569C325.88,359.369,325.41,355,325.87,354.087Z" transform="translate(-287.151 -228.3)" fill="#ffa8a7"/>
      <path id="Path_1975" data-name="Path 1975" d="M291,352.809c-2.716-3.155-.3-8.4,2.337-15.2,2.9-7.479,7.369-20.191,7.369-20.191l31.764-6.561s33.841-.649,36.947,5.822c2.516,5.183-19.771,12.981-22.967,13.261l-19.562,1.029-2.057,1-13.74,17.385Z" transform="translate(-287.099 -228.241)" fill="#9164e8"/>
      <path id="Path_1976" data-name="Path 1976" d="M349.579,321.991a79.936,79.936,0,0,0-6.88,7.988c-5.722,7.988-14.779,22.5-14.779,22.5s1.408,4.593,5.732,4.394c0,0,29.757-27.79,32.193-30.356,3.685-3.894,6.64-10.315.27-10.844S352.055,319.315,349.579,321.991Z" transform="translate(-287.154 -228.248)" fill="#9164e8"/>
      <path id="Path_1977" data-name="Path 1977" d="M342.556,330.144s5.312-7.769,10.814-10.984c0,0-5.472,1.078-13.76,11.164Z" transform="translate(-287.171 -228.253)" fill="#9164e8"/>
      <path id="Path_1978" data-name="Path 1978" d="M342.556,330.144s5.312-7.769,10.814-10.984c0,0-5.472,1.078-13.76,11.164Z" transform="translate(-287.171 -228.253)" opacity="0.1"/>
      <path id="Path_1979" data-name="Path 1979" d="M346.177,340l-2.087.4,1.937,7.16s1.877-.18,2.526-.14a10.656,10.656,0,0,0,2.706-1.048l-.5-4.374-2.3-2.4Z" transform="translate(-287.177 -228.282)" fill="#ffa8a7"/>
      <path id="Path_1980" data-name="Path 1980" d="M362.656,341.684a7.809,7.809,0,0,1,4.374,4.454,22.388,22.388,0,0,1,1.088,3.235c.33,1.158.17,3.126-1.3,3.445a2.427,2.427,0,0,1-1.388-.25c-2.946-1.138-5.822-2.456-8.837-3.415a29.338,29.338,0,0,0-8.038-1.747,5.562,5.562,0,0,0-.24-6.4,3.875,3.875,0,0,0-2.137-1c.759-.339,1.468-.779,2.2-1.188a6.66,6.66,0,0,1,4.663-1.148c1.258.27,2.217,1.268,3.285,2C358.362,341,360.329,340.905,362.656,341.684Z" transform="translate(-287.18 -228.28)" fill="#263238"/>
      <path id="Path_1981" data-name="Path 1981" d="M295.283,345.992c2.626-.809,6.82-1.528,19.262-2.167s29.467-3.435,29.467-3.435c2.9,2.786,1.937,7.16,1.937,7.16s-22.1,6.99-29.3,7.919c-11.463,1.478-15.418,1.368-20.59.26C290.25,354.48,286.585,348.658,295.283,345.992Z" transform="translate(-287.099 -228.284)" fill="#9164e8"/>
      <path id="Path_1982" data-name="Path 1982" d="M340.815,286.65l9.346,22.338-6.69,4.114L330.61,291.323Z" transform="translate(-287.158 -228.206)" fill="#f28f8f"/>
      <path id="Path_1983" data-name="Path 1983" d="M321.47,265.57c5.113.06,10.734,1.917,12.672,5.921l7.988,16.476s-4.513,6.61-11.683,6.141Z" transform="translate(-287.145 -228.175)" fill="#e0e0e0"/>
      <path id="Path_1984" data-name="Path 1984" d="M287.429,300.326c.06-.869,1.308-5.113,2.646-9.686L299.782,294l-2.606,8.218L289,309.972a12.862,12.862,0,0,1-1.568-9.646Z" transform="translate(-287.095 -228.212)" fill="#ffa8a7"/>
      <path id="Path_1985" data-name="Path 1985" d="M310.967,265.88c-6.091,1.468-14.389,3.375-16.8,9.986s-5.852,18.284-5.852,18.284c1.338,2.317,8.677,4.234,11.224,2.9l1.2-3.994v24.285c4.763,5.183,28.259,3.854,31.764-6.561V277.692c0-5.292-2.936-11.653-11.054-12.122Z" transform="translate(-287.097 -228.175)" fill="#fafafa"/>
      <path id="Path_1986" data-name="Path 1986" d="M300.73,293.1l3.056-9.616L300.73,297.4Z" transform="translate(-287.115 -228.201)" fill="#e0e0e0"/>
      <path id="Path_1987" data-name="Path 1987" d="M308.674,238.77a3.625,3.625,0,0,0-3,1c-1.288,1.318-1,3.755,0,9.346l3.994.449Z" transform="translate(-287.121 -228.137)" fill="#263238"/>
      <path id="Path_1988" data-name="Path 1988" d="M331.887,237.149a6.191,6.191,0,0,0,2.486-.509c1.218-.7,1.538.689.869,1.887a5.682,5.682,0,0,1-4.613,3.076c0-.17-1.138-3.105-1.138-3.105Z" transform="translate(-287.156 -228.133)" fill="#263238"/>
      <path id="Path_1989" data-name="Path 1989" d="M310.54,249.618c-.589.349-1.438-.779-2.167-1.548a2.556,2.556,0,0,0-4.284.7c-1.208,2.546,1.538,5.931,3.145,7.05a2.826,2.826,0,0,0,3.305.28l.419,9.736a10.375,10.375,0,0,0,7.829,5.941c5.712.769,4.533-3.944,2.656-6.251V261.96a13.7,13.7,0,0,0,4.354.22c.739-.2,2.516-2.347,3.665-4.753,1.288-2.7,3.435-7.489,1.528-15.607-2.057-8.707-11.413-8.987-16.975-5.462S310.54,249.618,310.54,249.618Z" transform="translate(-287.119 -228.13)" fill="#ffa8a7"/>
      <path id="Path_1990" data-name="Path 1990" d="M310.546,250.6c-.3,0-1.428-1.867-2.167-2.536-1-.929.3-9.307.3-9.307s-1-3.185,1-5.292,5.911-1.757,8.767-1.857a25.663,25.663,0,0,0,10.185-2.047c4.054-1.757,4.354-2,4.853-.19s.7,5.852-1.718,8.578l-1.318,2.147s-1.228,1-4.993,1.5-10.215-1.568-10.984-1.678c-1.1-.15-1.328.909-1.917,3.8C311.994,246.264,311.545,250.578,310.546,250.6Z" transform="translate(-287.125 -228.121)" fill="#263238"/>
      <path id="Path_1991" data-name="Path 1991" d="M308.685,239.416,305.11,237.5a2,2,0,0,1,2.706-.889,2.137,2.137,0,0,1,.869,2.806Z" transform="translate(-287.121 -228.133)" fill="#263238"/>
      <path id="Path_1992" data-name="Path 1992" d="M321.446,261.993a44.319,44.319,0,0,1-7.14-2,6.121,6.121,0,0,1-2.556-2.536,8.389,8.389,0,0,0,1.458,3c1.348,1.728,8.238,3,8.238,3Z" transform="translate(-287.13 -228.164)" fill="#f28f8f"/>
      <path id="Path_1993" data-name="Path 1993" d="M321.627,249.438a1.058,1.058,0,1,1-1.058-1.1,1.079,1.079,0,0,1,1.058,1.1Z" transform="translate(-287.142 -228.151)" fill="#263238"/>
      <path id="Path_1994" data-name="Path 1994" d="M320.506,245.439l-2.277,1.248a1.378,1.378,0,0,1,.529-1.807,1.268,1.268,0,0,1,1.747.559Z" transform="translate(-287.14 -228.145)" fill="#263238"/>
      <path id="Path_1995" data-name="Path 1995" d="M321,256.54l2.426.919a1.278,1.278,0,0,1-1.648.8A1.358,1.358,0,0,1,321,256.54Z" transform="translate(-287.144 -228.162)" fill="#f28f8f"/>
      <path id="Path_1996" data-name="Path 1996" d="M331.1,246.317l-2.067-1.6a1.258,1.258,0,0,1,1.8-.27A1.368,1.368,0,0,1,331.1,246.317Z" transform="translate(-287.155 -228.145)" fill="#263238"/>
      <path id="Path_1997" data-name="Path 1997" d="M330.457,249.138a1.058,1.058,0,1,1-1.058-1.1,1.078,1.078,0,0,1,1.058,1.1Z" transform="translate(-287.154 -228.15)" fill="#263238"/>
      <path id="Path_1998" data-name="Path 1998" d="M325.459,249.01l-1,6.311,3.495-.409Z" transform="translate(-287.149 -228.152)" fill="#f28f8f"/>
      <path id="Path_1999" data-name="Path 1999" d="M361.853,320.762,340.334,308.34a1.248,1.248,0,0,0-1.238,0L301.36,330.128l22.128,12.821Z" transform="translate(-287.115 -228.237)" fill="#37474f"/>
      <path id="Path_2000" data-name="Path 2000" d="M323.3,341.092l-11.6-6.69,33.931-19.592,11.663,6.66Z" transform="translate(-287.13 -228.247)" fill="#263238"/>
      <path id="Path_2001" data-name="Path 2001" d="M317.61,322.481l.22.12,5.682,3.285,10.115-5.842.21-.12-5.9-3.405Z" transform="translate(-287.139 -228.249)" fill="#263238"/>
      <path id="Path_2002" data-name="Path 2002" d="M317.83,322.6l5.682,3.285,10.115-5.842-5.692-3.285Z" transform="translate(-287.139 -228.249)" fill="#263238"/>
      <path id="Path_2003" data-name="Path 2003" d="M301.36,330.146v.509a2.087,2.087,0,0,0,1,1.8l20.051,11.573a2.067,2.067,0,0,0,2.077,0l36.288-20.97a2.1,2.1,0,0,0,1-1.8v-.509l-38.285,22.218Z" transform="translate(-287.115 -228.255)" fill="#263238"/>
      <path id="Path_2004" data-name="Path 2004" d="M323.52,342.968v1.378a2,2,0,0,0,1-.28l36.288-20.97a2.1,2.1,0,0,0,1-1.8v-.509Z" transform="translate(-287.147 -228.255)" fill="#263238"/>
      <path id="Path_2005" data-name="Path 2005" d="M324.11,343.2a2.467,2.467,0,0,0,2.117-.17l36.128-20.86a2.427,2.427,0,0,0,1.188-1.718l3.994-23.576a2.851,2.851,0,0,0,0-.409,2.477,2.477,0,0,0-.729-1.747L329.262,316.4a1.807,1.807,0,0,0-.879,1.268Z" transform="translate(-287.148 -228.218)" fill="#263238"/>
      <path id="Path_2006" data-name="Path 2006" d="M323.52,342.93l.25.14a3.579,3.579,0,0,0,.34.17l4.274-25.533a1.807,1.807,0,0,1,.879-1.268l37.546-21.679a3.135,3.135,0,0,0-.5-.38l-37.616,21.679a1.827,1.827,0,0,0-.889,1.268Z" transform="translate(-287.147 -228.217)" fill="#455a64"/>
      <path id="Path_2007" data-name="Path 2007" d="M344.48,321.452a7.988,7.988,0,0,1,3.645-4.683c1.747-1,2.946-.549,2.686,1a7.989,7.989,0,0,1-3.645,4.683C345.419,323.5,344.22,322.99,344.48,321.452Z" transform="translate(-287.178 -228.249)" fill="#37474f"/>
      <path id="Path_2008" data-name="Path 2008" d="M297.178,302.206s6.481,24.964,9.217,26.751,7.829,3.1,10.265,3.994,3.545,2.127,3.126,2.466-3.934.709-5.153,1.138.359,2.4,3.056,4.483,4.993,1.9,4.693,3.285-6.311,2.776-11.384-.2-6.61-6.99-9.636-10.395S291.426,316.175,289,309.984c0,0,.23-11.5,3.994-10.774S297.178,302.206,297.178,302.206Z" transform="translate(-287.098 -228.224)" fill="#ffa8a7"/>
      <path id="Path_2009" data-name="Path 2009" d="M328.07,352.864c.459,1.108,2.047,4.164,5.582,3.994l8.688-8.128Z" transform="translate(-287.154 -228.296)" fill="#9164e8"/>
      <path id="Path_2010" data-name="Path 2010" d="M328.07,352.864c.459,1.108,2.047,4.164,5.582,3.994l8.688-8.128Z" transform="translate(-287.154 -228.296)" opacity="0.1"/>
      <path id="Path_2011" data-name="Path 2011" d="M333.32,357.84a.493.493,0,0,1,0,.11A.493.493,0,0,0,333.32,357.84Z" transform="translate(-287.162 -228.309)" fill="#263238"/>
      <path id="Path_2012" data-name="Path 2012" d="M330.687,367.171a19.971,19.971,0,0,1,1.268-7.669h0a3.175,3.175,0,0,1-2.906.379c-2.906-.869-3.635-4.923-3.175-5.8h0c-.419.369-.859.719-1.288,1.078a6.62,6.62,0,0,0-2.746,3.944c-.2,1.268.389,2.516.679,3.775.559,2.4,0,4.893-.09,7.349a7.839,7.839,0,0,0,2.586,5.672,21.28,21.28,0,0,0,2.636,2.187,2.476,2.476,0,0,0,4.324-1.767C331.6,373.2,330.867,370.416,330.687,367.171Z" transform="translate(-287.145 -228.303)" fill="#263238"/>
      <path id="Path_2013" data-name="Path 2013" d="M334,356.35c-.27.509-.509,1-.719,1.488C333.53,357.359,333.769,356.859,334,356.35Z" transform="translate(-287.162 -228.307)" fill="#37474f"/>
      <path id="Path_2014" data-name="Path 2014" d="M325.86,354.08h0l.19-.17Z" transform="translate(-287.151 -228.303)" fill="#37474f"/>
    </g>
  </g>
</svg>
