<svg xmlns="http://www.w3.org/2000/svg" width="744" height="105" viewBox="0 0 744 105">
  <g id="Group_618" data-name="Group 618" transform="translate(-311 -189)">
    <text id="لورم_ایپسوم_متن_ساختگی_با_تولید_سادگی_نامفهوم_از_صنعت_چاپ_و_با_استفاده_از_طراحان_گرافیک_است_چاپگرها_و_متون_بلکه_روزنامه_و_مجله_در_ستون_و_سطرآنچنان_که_لازم_است_و_برای_شرایط_فعلی_تکنولوژی_مورد_نیاز_و_کاربردهای_متنوع_با_هدف_بهبود_ابزارهای_کاربردی_می_باشد_کتاب" data-name="لورم ایپسوم متن ساختگی با تولید سادگی نامفهوم از صنعت چاپ و با استفاده از طراحان گرافیک است چاپگرها و متون بلکه روزنامه و مجله در ستون و سطرآنچنان که لازم است و برای شرایط فعلی تکنولوژی مورد نیاز و کاربردهای متنوع با هدف بهبود ابزارهای کاربردی می باشد کتاب" transform="translate(869 274)" fill="#9164e8" font-size="14" font-family="SegoeUI, Segoe UI"><tspan x="14.605" y="15">لورم ایپسوم متن ساختگی با</tspan><tspan y="15"> </tspan></text>
    <text id="لورم_ایپسوم_متن_ساختگی_با_تولید_سادگی_نامفهوم_از_صنعت_چاپ_و_با_استفاده_از_طراحان_گرافیک_است_چاپگرها_و_متون_بلکه_روزنامه_و_مجله_در_ستون_و_سطرآنچنان_که_لازم_است_و_برای_شرایط_فعلی_تکنولوژی_مورد_نیاز_و_کاربردهای_متنوع_با_هدف_بهبود_ابزارهای_کاربردی_می_باشد_کتاب-2" data-name="لورم ایپسوم متن ساختگی با تولید سادگی نامفهوم از صنعت چاپ و با استفاده از طراحان گرافیک است چاپگرها و متون بلکه روزنامه و مجله در ستون و سطرآنچنان که لازم است و برای شرایط فعلی تکنولوژی مورد نیاز و کاربردهای متنوع با هدف بهبود ابزارهای کاربردی می باشد کتاب" transform="translate(590 271)" fill="#bdbdbd" font-size="14" font-family="SegoeUI, Segoe UI"><tspan x="14.605" y="15">لورم ایپسوم متن ساختگی با</tspan><tspan y="15"> </tspan></text>
    <text id="لورم_ایپسوم_متن_ساختگی_با_تولید_سادگی_نامفهوم_از_صنعت_چاپ_و_با_استفاده_از_طراحان_گرافیک_است_چاپگرها_و_متون_بلکه_روزنامه_و_مجله_در_ستون_و_سطرآنچنان_که_لازم_است_و_برای_شرایط_فعلی_تکنولوژی_مورد_نیاز_و_کاربردهای_متنوع_با_هدف_بهبود_ابزارهای_کاربردی_می_باشد_کتاب-3" data-name="لورم ایپسوم متن ساختگی با تولید سادگی نامفهوم از صنعت چاپ و با استفاده از طراحان گرافیک است چاپگرها و متون بلکه روزنامه و مجله در ستون و سطرآنچنان که لازم است و برای شرایط فعلی تکنولوژی مورد نیاز و کاربردهای متنوع با هدف بهبود ابزارهای کاربردی می باشد کتاب" transform="translate(311 271)" fill="#bdbdbd" font-size="14" font-family="SegoeUI, Segoe UI"><tspan x="14.605" y="15">لورم ایپسوم متن ساختگی با</tspan><tspan y="15"> </tspan></text>
    <g id="Group_564" data-name="Group 564" transform="translate(-28 -14)">
      <circle id="Ellipse_25" data-name="Ellipse 25" cx="16" cy="16" r="16" transform="translate(974 203)" fill="#7138e1"/>
      <text id="_1" data-name="1" transform="translate(992 224)" fill="#fafafa" font-size="16" font-family="SegoeUI, Segoe UI"><tspan x="-8.625" y="0">1</tspan></text>
    </g>
    <path id="Path_1863" data-name="Path 1863" d="M-17113.211,566.795s-53.59,23.288-109.535,21.983S-17337,566.795-17337,566.795" transform="translate(18056 -317.831)" fill="none" stroke="#7138e1" stroke-width="3"/>
    <path id="Path_1864" data-name="Path 1864" d="M-17114,588.831s-53.4-23.288-109.15-21.983S-17337,588.831-17337,588.831" transform="translate(17769.002 -345.795)" fill="none" stroke="#7138e1" stroke-width="3"/>
    <g id="Group_565" data-name="Group 565" transform="translate(-4 -10)">
      <circle id="Ellipse_26" data-name="Ellipse 26" cx="16" cy="16" r="16" transform="translate(671 201)" fill="#f5f5f5"/>
      <text id="_2" data-name="2" transform="translate(691 222)" fill="#bdbdbd" font-size="16" font-family="SegoeUI, Segoe UI"><tspan x="-8.625" y="0">2</tspan></text>
    </g>
    <g id="Group_562" data-name="Group 562" transform="translate(168 -55)">
      <rect id="Rectangle_111" data-name="Rectangle 111" width="24" height="24" transform="translate(503 298)" fill="none"/>
      <g id="monitor" transform="translate(497 254)">
        <path id="Path_914" data-name="Path 914" d="M26.964,48H9.135A1.136,1.136,0,0,0,8,49.135V61.129a1.136,1.136,0,0,0,1.135,1.135h6.574l-.194.972H14.159a.324.324,0,0,0-.324.324v.972a.324.324,0,0,0,.324.324h7.78a.324.324,0,0,0,.324-.324V63.56a.324.324,0,0,0-.324-.324H20.584l-.194-.972h6.574A1.136,1.136,0,0,0,28.1,61.129V49.135A1.136,1.136,0,0,0,26.964,48ZM21.615,63.884v.324H14.483v-.324Zm-5.439-.648.194-.972h3.358l.194.972ZM27.45,61.129a.487.487,0,0,1-.486.486H9.135a.487.487,0,0,1-.486-.486v-.81h18.8Zm0-1.459H8.648V49.135a.487.487,0,0,1,.486-.486H26.964a.487.487,0,0,1,.486.486Z" transform="translate(0 0)" fill="#9c9c9c" stroke="#9c9c9c" stroke-width="0.25"/>
        <path id="Path_915" data-name="Path 915" d="M240.972,360h-.648a.324.324,0,0,0,0,.648h.648a.324.324,0,1,0,0-.648Z" transform="translate(-222.599 -299.358)" fill="#9c9c9c" stroke="#9c9c9c" stroke-width="0.25"/>
      </g>
    </g>
    <g id="Group_566" data-name="Group 566" transform="translate(-4 -9)">
      <ellipse id="Ellipse_27" data-name="Ellipse 27" cx="16" cy="15.5" rx="16" ry="15.5" transform="translate(392 201)" fill="#f5f5f5"/>
      <text id="_3" data-name="3" transform="translate(412 221)" fill="#bdbdbd" font-size="16" font-family="SegoeUI, Segoe UI"><tspan x="-8.625" y="0">3</tspan></text>
    </g>
    <g id="Group_563" data-name="Group 563" transform="translate(5 -31)">
      <rect id="Rectangle_112" data-name="Rectangle 112" width="24" height="24" transform="translate(387 274)" fill="none"/>
      <g id="graduation-cap" transform="translate(389 278)">
        <g id="Group_410" data-name="Group 410">
          <path id="Path_911" data-name="Path 911" d="M19.336,46l-7.973-3.984a3.2,3.2,0,0,0-2.543,0L.664,46A1,1,0,0,0,0,46.889c0,.211.092.586.664.891l.664.328v3.75a1.148,1.148,0,0,0-.71,1.055,1.164,1.164,0,0,0,.687,1.055L.275,57.318H3.162L2.131,53.967a1.145,1.145,0,0,0-.023-2.109V48.506l1.214.609V53.99a.384.384,0,0,0,.069.211,8.269,8.269,0,0,0,6.6,3.117A8.223,8.223,0,0,0,16.564,54.2a.384.384,0,0,0,.069-.211V49.139l2.7-1.359A1,1,0,0,0,20,46.889,1.047,1.047,0,0,0,19.336,46ZM15.9,53.873a7.6,7.6,0,0,1-5.911,2.719,7.6,7.6,0,0,1-5.911-2.719v-4.43l4.742,2.32a3.03,3.03,0,0,0,1.26.258,2.737,2.737,0,0,0,1.283-.281L15.9,49.467Zm3.116-6.75-2.749,1.383a.262.262,0,0,0-.252.141l-4.971,2.461a2.491,2.491,0,0,1-1.924,0L3,48.107l7.033-.844a.363.363,0,0,0,.321-.4.359.359,0,0,0-.389-.328l-8.156.984-.825-.4a.466.466,0,0,1-.252-.211c0-.023.046-.117.252-.211l8.156-4.008a2.321,2.321,0,0,1,.939-.187,2.277,2.277,0,0,1,.962.187l7.973,3.984c.206.094.252.187.252.234A.635.635,0,0,1,19.015,47.123Z" transform="translate(0 -41.75)" fill="#9c9c9c" stroke="#9c9c9c" stroke-width="0.25"/>
        </g>
      </g>
    </g>
    <g id="Group_617" data-name="Group 617" transform="translate(198 126)">
      <rect id="Rectangle_123" data-name="Rectangle 123" width="24" height="24" transform="translate(752 120)" fill="none"/>
      <g id="books_1_" data-name="books (1)" transform="translate(748.479 122)">
        <g id="Group_592" data-name="Group 592" transform="translate(5.522 0)">
          <g id="Group_591" data-name="Group 591" transform="translate(0 0)">
            <path id="Path_1883" data-name="Path 1883" d="M25.465,18.416h0L20.5.24a.332.332,0,0,0-.4-.229L15.612,1.186a.324.324,0,0,0-.157.1v-.7a.328.328,0,0,0-.331-.324H5.853a.328.328,0,0,0-.331.324V19.408a.328.328,0,0,0,.331.324h9.271a.328.328,0,0,0,.331-.324V1.866l4.893,17.894a.33.33,0,0,0,.32.24.35.35,0,0,0,.085-.011l4.477-1.176A.324.324,0,0,0,25.465,18.416Zm-15.308.667H6.184V.916h3.973Zm4.635,0H10.82V.916h3.973Zm6.109.195L16.1,1.729,19.941.721l4.8,17.549Z" transform="translate(-5.522 0)" fill="#9164e8" stroke="#707070" stroke-width="0.25"/>
          </g>
        </g>
        <g id="Group_594" data-name="Group 594" transform="translate(6.846 2.214)">
          <g id="Group_593" data-name="Group 593" transform="translate(0)">
            <path id="Path_1884" data-name="Path 1884" d="M39.84,54.589H37.853a.324.324,0,1,0,0,.649H39.84a.324.324,0,1,0,0-.649Z" transform="translate(-37.522 -54.589)" fill="#9164e8" stroke="#707070" stroke-width="0.25"/>
          </g>
        </g>
        <g id="Group_596" data-name="Group 596" transform="translate(6.846 3.511)">
          <g id="Group_595" data-name="Group 595" transform="translate(0)">
            <path id="Path_1885" data-name="Path 1885" d="M39.84,86.589H37.853a.324.324,0,1,0,0,.649H39.84a.324.324,0,1,0,0-.649Z" transform="translate(-37.522 -86.589)" fill="#9164e8" stroke="#707070" stroke-width="0.25"/>
          </g>
        </g>
        <g id="Group_598" data-name="Group 598" transform="translate(11.482 2.214)">
          <g id="Group_597" data-name="Group 597" transform="translate(0)">
            <path id="Path_1886" data-name="Path 1886" d="M151.84,54.589h-1.987a.324.324,0,1,0,0,.649h1.987a.324.324,0,1,0,0-.649Z" transform="translate(-149.522 -54.589)" fill="#9164e8" stroke="#707070" stroke-width="0.25"/>
          </g>
        </g>
        <g id="Group_600" data-name="Group 600" transform="translate(11.482 3.511)">
          <g id="Group_599" data-name="Group 599" transform="translate(0)">
            <path id="Path_1887" data-name="Path 1887" d="M151.84,86.589h-1.987a.324.324,0,1,0,0,.649h1.987a.324.324,0,1,0,0-.649Z" transform="translate(-149.522 -86.589)" fill="#9164e8" stroke="#707070" stroke-width="0.25"/>
          </g>
        </g>
        <g id="Group_602" data-name="Group 602" transform="translate(17.155 2.214)">
          <g id="Group_601" data-name="Group 601">
            <path id="Path_1888" data-name="Path 1888" d="M289.192,54.84a.332.332,0,0,0-.4-.24l-.017,0-1.92.5a.324.324,0,0,0-.236.4.332.332,0,0,0,.4.231h0l1.921-.5A.324.324,0,0,0,289.192,54.84Z" transform="translate(-286.608 -54.591)" fill="#9164e8" stroke="#707070" stroke-width="0.25"/>
          </g>
        </g>
        <g id="Group_604" data-name="Group 604" transform="translate(17.501 3.469)">
          <g id="Group_603" data-name="Group 603">
            <path id="Path_1889" data-name="Path 1889" d="M297.533,85.795a.332.332,0,0,0-.406-.229h0l-1.919.5a.324.324,0,0,0-.236.4.332.332,0,0,0,.4.231h0l1.92-.5A.324.324,0,0,0,297.533,85.795Z" transform="translate(-294.96 -85.554)" fill="#9164e8" stroke="#707070" stroke-width="0.25"/>
          </g>
        </g>
        <g id="Group_606" data-name="Group 606" transform="translate(20.758 15.378)">
          <g id="Group_605" data-name="Group 605">
            <path id="Path_1890" data-name="Path 1890" d="M376.214,379.444a.332.332,0,0,0-.4-.228l-1.92.5a.324.324,0,0,0-.234.4.33.33,0,0,0,.32.241h0a.342.342,0,0,0,.086-.011l1.919-.5A.324.324,0,0,0,376.214,379.444Z" transform="translate(-373.644 -379.205)" fill="#9164e8" stroke="#707070" stroke-width="0.25"/>
          </g>
        </g>
        <g id="Group_608" data-name="Group 608" transform="translate(21.103 16.631)">
          <g id="Group_607" data-name="Group 607">
            <path id="Path_1891" data-name="Path 1891" d="M384.558,410.356a.332.332,0,0,0-.4-.228l-1.921.5a.324.324,0,0,0-.234.4.332.332,0,0,0,.406.229l1.92-.5A.324.324,0,0,0,384.558,410.356Z" transform="translate(-381.988 -410.117)" fill="#9164e8" stroke="#707070" stroke-width="0.25"/>
          </g>
        </g>
        <g id="Group_610" data-name="Group 610" transform="translate(11.482 15.839)">
          <g id="Group_609" data-name="Group 609" transform="translate(0)">
            <path id="Path_1892" data-name="Path 1892" d="M151.84,390.589h-1.987a.324.324,0,1,0,0,.649h1.987a.324.324,0,1,0,0-.649Z" transform="translate(-149.522 -390.589)" fill="#9164e8" stroke="#707070" stroke-width="0.25"/>
          </g>
        </g>
        <g id="Group_612" data-name="Group 612" transform="translate(11.482 17.137)">
          <g id="Group_611" data-name="Group 611" transform="translate(0)">
            <path id="Path_1893" data-name="Path 1893" d="M151.84,422.589h-1.987a.325.325,0,1,0,0,.649h1.987a.325.325,0,1,0,0-.649Z" transform="translate(-149.522 -422.589)" fill="#9164e8" stroke="#707070" stroke-width="0.25"/>
          </g>
        </g>
        <g id="Group_614" data-name="Group 614" transform="translate(6.846 15.839)">
          <g id="Group_613" data-name="Group 613" transform="translate(0)">
            <path id="Path_1894" data-name="Path 1894" d="M39.84,390.589H37.853a.324.324,0,1,0,0,.649H39.84a.324.324,0,1,0,0-.649Z" transform="translate(-37.522 -390.589)" fill="#9164e8" stroke="#707070" stroke-width="0.25"/>
          </g>
        </g>
        <g id="Group_616" data-name="Group 616" transform="translate(6.846 17.137)">
          <g id="Group_615" data-name="Group 615" transform="translate(0)">
            <path id="Path_1895" data-name="Path 1895" d="M39.84,422.589H37.853a.325.325,0,1,0,0,.649H39.84a.325.325,0,1,0,0-.649Z" transform="translate(-37.522 -422.589)" fill="#9164e8" stroke="#707070" stroke-width="0.25"/>
          </g>
        </g>
      </g>
    </g>
  </g>
</svg>
